<svg xmlns="http://www.w3.org/2000/svg" width="106.47" height="151"><path d="M68.74 24.62a11.338 11.338 0 01-7.94 3.207h-.12a11.359 11.359 0 01-7.99-3.362 1.53 1.53 0 00-2.15-.022 1.491 1.491 0 00-.02 2.127 14.373 14.373 0 0010.13 4.265h.15a14.381 14.381 0 0010.07-4.067 1.491 1.491 0 00.02-2.128 1.533 1.533 0 00-2.15-.02zM58.58 59.528a1.242 1.242 0 001.74.059 1.2 1.2 0 00.06-1.725 7.634 7.634 0 00-4-2.38 4.51 4.51 0 011.07-.127h.02a1.22 1.22 0 100-2.439h-.02a7.516 7.516 0 00-6.51 4.118c-.01.024-.01.05-.02.074a.447.447 0 00-.04.106.358.358 0 00-.03.141.206.206 0 00-.01.078.969.969 0 00-.01.169.1.1 0 00.01.053.6.6 0 00.03.188.046.046 0 00.01.035.743.743 0 00.07.2c0 .005.01.01.01.015a.932.932 0 00.13.2.961.961 0 00.17.177 1.375 1.375 0 00.19.134.033.033 0 01.01 0c.02.014.05.032.07.044a1.216 1.216 0 00.12.042.221.221 0 01.04.011 1.054 1.054 0 00.21.046.042.042 0 00.02 0 .968.968 0 00.14.017c.02 0 .04-.009.06-.01a1.137 1.137 0 00.23-.032.989.989 0 00.12-.04.973.973 0 00.19-.082l.09-.053c.02-.015.04-.025.06-.04.29-.207 2.9-2.007 5.77 1.021zm-22.05-6.512c-1.59.088-2.78 1.774-2.67 3.764s1.5 3.53 3.08 3.441 2.79-1.773 2.67-3.764-1.49-3.53-3.08-3.442zm4.97 58.345a1.88 1.88 0 10-1.88 1.856 1.865 1.865 0 001.88-1.857zm56.96-43.864a26.208 26.208 0 001.35-5.925c.2-4.4-2.35-7.965-6.2-8.669a7.172 7.172 0 00-5.64 1.29A7.824 7.824 0 0085 59.085c-.02.095-1.17 6.412-2.1 11.491-1.04.378-2.11.726-3.2 1.059a8.168 8.168 0 00.99-3.9 8.353 8.353 0 00-6.89-8.169v-7.023a27.678 27.678 0 0011.5-14.157 32.773 32.773 0 001.67-15.463 26.846 26.846 0 00-50.84-7.521 23.268 23.268 0 00-10.8-.976 21.7 21.7 0 00-14.42 8.284 21.2 21.2 0 00-4.27 15.933c.87 6.336 5.23 12.28 11.39 15.512a1.639 1.639 0 00.37.134v5.273a8.287 8.287 0 000 16.344v3.678c0 .452.02.9.04 1.348-.24.012-.47.023-.71.023a15.241 15.241 0 01-2.02-.138 1.524 1.524 0 00-1.55.787 1.479 1.479 0 00.21 1.707 36.254 36.254 0 003.78 3.617A56.062 56.062 0 00.29 103.201a1.51 1.51 0 001.25 2.362 1.536 1.536 0 001.26-.647 52.973 52.973 0 0117.39-15.685 27.75 27.75 0 0053.57-8.268 33.28 33.28 0 003.61-5.526 81.66 81.66 0 004.91-1.454c-.13.715-.25 1.328-.34 1.807a44.59 44.59 0 00-.59 2.73c-1 5.344-.97 9.381.08 12.343a9.118 9.118 0 001.94 3.222 22.806 22.806 0 00-6.31 5.069 1.509 1.509 0 001.15 2.49 1.518 1.518 0 001.15-.519 19.977 19.977 0 015.72-4.542c.33-.192.67-.392 1.01-.6a10.9 10.9 0 002.4.72 13.456 13.456 0 002.4.214c6.29 0 13.43-4.291 15.23-13.88 1.37-7.337-1.47-12.899-7.66-15.537zM18.4 72.824a5.285 5.285 0 010-10.178v10.178zm27.7 31.125a24.7 24.7 0 01-21.81-13.054 26.824 26.824 0 0011.75 2.708 29.118 29.118 0 006.13-.662c.45-.1.88-.217 1.3-.35a9.1 9.1 0 005.58.57 8.965 8.965 0 003.97-1.967c.44.006.88 0 1.32-.037A27.548 27.548 0 0067.07 87a26.382 26.382 0 003.14-2.34 24.628 24.628 0 01-24.11 19.288zm8-15.791a9.848 9.848 0 01-5.65-1.176 1.527 1.527 0 00-1.87.276 9.706 9.706 0 01-5.06 2.744 26.07 26.07 0 01-5.48.594 24.676 24.676 0 01-16.8-6.7c5.16-.469 8.77-3.291 12-5.807 2.59-2.025 5.04-3.937 7.94-4.356a8.434 8.434 0 015.51 1.091 1.541 1.541 0 001.92-.281 8.346 8.346 0 014.95-2.623 8.688 8.688 0 011.31-.1c2.46 0 4.94.965 7.57 1.984 3.09 1.2 6.29 2.438 10 2.438A15.888 15.888 0 0073.12 76c.17-.016.34-.048.5-.074A24.335 24.335 0 0154.1 88.157zm-8-26.279a10.533 10.533 0 00-10.55 9.817 29.439 29.439 0 00-6.2 4.031c-2.49 1.945-4.89 3.807-7.88 4.692-.01-.278-.02-.555-.02-.834V50.491a56.849 56.849 0 0124.87-5.736 54.843 54.843 0 0124.44 5.763v22.7c-.11 0-.21.017-.32.017-3.14 0-6.06-1.134-8.89-2.23a39.278 39.278 0 00-5.36-1.789 10.577 10.577 0 00-10.09-7.338zm6.64 6.942a12 12 0 00-1.63.124 11.468 11.468 0 00-5.91 2.743 11.547 11.547 0 00-6.46-.932.017.017 0 01-.01 0 7.565 7.565 0 0114.01-1.936zM70.9 47.253a57.68 57.68 0 00-24.58-5.5 60.056 60.056 0 00-25.01 5.448 7.349 7.349 0 00-3.26-5.279 1.53 1.53 0 00-2.09.494 1.491 1.491 0 00.5 2.07c2.24 1.358 1.95 4.958 1.95 5v.059c0 .019-.01.035-.01.054v1.3a17.622 17.622 0 01-5.07-26.363 18.678 18.678 0 0112.4-7.127 19.515 19.515 0 0115.5 4.294 1.543 1.543 0 002.15-.2 1.5 1.5 0 00-.21-2.118 23.509 23.509 0 00-4.25-2.787 23.8 23.8 0 0145.04 6.729c1.12 8.189-1.07 18.882-10.16 25.586.02-1.078.26-3.4 1.96-4.432a1.491 1.491 0 00.5-2.07 1.527 1.527 0 00-2.09-.494 7.412 7.412 0 00-3.27 5.335zm3.48 25.361c-.19.061-.39.112-.58.163V62.651a5.278 5.278 0 01.58 9.962zm13.61-12.99a4.875 4.875 0 011.81-3.031 4.092 4.092 0 013.26-.731c2.72.5 3.82 3.157 3.71 5.574a22.4 22.4 0 01-1.19 5.1 22.42 22.42 0 00-1.38-.306 15.6 15.6 0 00-2.81-.28 8.059 8.059 0 00-4.81 1.428c.73-3.998 1.4-7.685 1.41-7.755zm15.13 22.87c-1.57 8.428-7.57 11.418-12.23 11.418a10.451 10.451 0 01-1.85-.164 7.4 7.4 0 01-2.06-.665 1.555 1.555 0 00-.43-.242c-2.29-1.451-3.86-4.93-2.21-13.774 1.74-9.324 4.44-10.105 7.05-10.105a12.353 12.353 0 012.25.231c4.33.787 11.3 3.563 9.48 13.3zM46.1 110.721a1.511 1.511 0 00-1.52 1.5v4.723a35.59 35.59 0 01-28.54-16.242 1.53 1.53 0 00-2.1-.459 1.5 1.5 0 00-.46 2.078A38.651 38.651 0 0046.1 120a1.512 1.512 0 001.52-1.5v-6.275a1.511 1.511 0 00-1.52-1.505zm-20.15 18.274a5.072 5.072 0 00-3.78 1.63 5.423 5.423 0 00-1.54 3.9v10.988a5.508 5.508 0 001.54 3.9 5.133 5.133 0 003.78 1.592 5.07 5.07 0 003.78-1.592 5.41 5.41 0 001.57-3.9v-10.988a5.328 5.328 0 00-1.57-3.9 5.01 5.01 0 00-3.78-1.631zm1.8 16.519a1.757 1.757 0 01-.52 1.288 1.691 1.691 0 01-2.53 0 1.789 1.789 0 01-.51-1.288v-10.989a1.836 1.836 0 01.51-1.325 1.686 1.686 0 011.25-.53 1.7 1.7 0 011.28.53 1.8 1.8 0 01.52 1.325v10.988zm-16.43-16.519H5.97v22.013h5.35a5.014 5.014 0 003.74-1.592 5.419 5.419 0 001.58-3.9v-10.991a5.337 5.337 0 00-1.58-3.9 4.956 4.956 0 00-3.74-1.631zm1.76 16.519a1.789 1.789 0 01-.51 1.288 1.7 1.7 0 01-1.25.569l-1.8-.039V132.67h1.8a1.67 1.67 0 011.25.53 1.836 1.836 0 01.51 1.325v10.988zm27.57-16.519H35.3v22.013h5.35a5 5 0 003.74-1.592 5.419 5.419 0 001.58-3.9v-1.026a5.343 5.343 0 00-1.58-3.9 3.749 3.749 0 00-.8-.681 5.133 5.133 0 00.8-.719 5.262 5.262 0 001.58-3.9v-.8a5.419 5.419 0 00-1.58-3.9 5 5 0 00-3.74-1.596zm1.76 16.519a1.789 1.789 0 01-.51 1.288 1.7 1.7 0 01-1.25.569l-1.79-.039v-5.455h1.79a1.674 1.674 0 011.25.53 1.792 1.792 0 01.51 1.288v1.819zm0-9.17a1.838 1.838 0 01-.51 1.328 1.674 1.674 0 01-1.25.53h-1.79v-5.532h1.79a1.67 1.67 0 011.25.53 1.79 1.79 0 01.51 1.287v1.856zm27.54-7.349a5.072 5.072 0 00-3.78 1.63 5.423 5.423 0 00-1.54 3.9v10.988a5.508 5.508 0 001.54 3.9 5.133 5.133 0 003.78 1.592 5.07 5.07 0 003.78-1.592 5.41 5.41 0 001.57-3.9v-10.988a5.328 5.328 0 00-1.57-3.9 5.01 5.01 0 00-3.78-1.631zm1.8 16.519a1.757 1.757 0 01-.52 1.288 1.691 1.691 0 01-2.53 0 1.789 1.789 0 01-.51-1.288v-10.989a1.836 1.836 0 01.51-1.325 1.686 1.686 0 011.25-.53 1.7 1.7 0 011.28.53 1.8 1.8 0 01.52 1.325v10.988zm14.66-9.17a1.838 1.838 0 01-.51 1.328 1.674 1.674 0 01-1.25.53h-1.79v-9.207H79.3v22.013h3.56v-9.131h1.79a1.674 1.674 0 011.25.53 1.792 1.792 0 01.51 1.288v7.313h3.56v-6.518a5.343 5.343 0 00-1.58-3.9 3.749 3.749 0 00-.8-.681 5.133 5.133 0 00.8-.719 5.262 5.262 0 001.58-3.9V129h-3.56v7.349zm-31.09-7.349h-5.35v22.013h3.55v-9.131h1.8a1.69 1.69 0 011.25.53 1.792 1.792 0 01.51 1.288v7.313h3.56v-6.518a5.343 5.343 0 00-1.58-3.9 3.83 3.83 0 00-.81-.681 5.887 5.887 0 00.81-.719 5.262 5.262 0 001.58-3.9v-.8a5.419 5.419 0 00-1.58-3.9 5.01 5.01 0 00-3.74-1.596zm1.76 7.349a1.838 1.838 0 01-.51 1.328 1.69 1.69 0 01-1.25.53h-1.8v-5.532h1.8a1.686 1.686 0 011.25.53 1.79 1.79 0 01.51 1.287v1.856z" fill="#717171" fill-rule="evenodd"/></svg>