<?xml version="1.0"?>
<svg xmlns:rdf="http://www.w3.org/1999/02/22-rdf-syntax-ns#" xmlns="http://www.w3.org/2000/svg" xmlns:cc="http://web.resource.org/cc/" xmlns:xlink="http://www.w3.org/1999/xlink" xmlns:dc="http://purl.org/dc/elements/1.1/" xmlns:svg="http://www.w3.org/2000/svg" version="1.1" y="0px" x="0px" viewBox="0 0 1100 800">
  <g id="motore">
    <path d="m420.45 692.3s67.9 25.09 116.61-4.87c54.79-49.13 61.5-58.13 1.54-90.95-33.23-32.21-117.52-2.48-117.52-2.48" fill="#314400"/>
    <path d="m417.5 694.31l0.04 0.02 0.44 0.16 0.82 0.28 1.19 0.4 2.42 0.77 4.34 1.28 5.54 1.46 6.59 1.52 7.53 1.48 8.35 1.29 9.05 1 9.64 0.57 10.1 0.02 10.44-0.66 10.62-1.47 10.64-2.41 10.46-3.48 10.12-4.62 5-2.85c0.23-0.13 0.43-0.27 0.6-0.43l2.53-2.27 4.86-4.38 4.58-4.17 4.29-3.96 4-3.78 3.71-3.61 3.42-3.43 3.12-3.29 4.1-4.67 4.4-5.8 3.15-5.46 1.84-5.18 0.45-5.02-1-4.91-2.49-4.87-3.99-4.86-5.46-4.93-5.08-3.82-3.84-2.62-4.18-2.67-4.54-2.76-4.91-2.86-5.29-2.98-2.8-1.54 0.69 0.49-1.59-1.47-3.58-2.81-3.95-2.53-4.24-2.21-4.51-1.88-4.74-1.58-7.33-1.79-10.25-1.46-10.59-0.55-10.57 0.24-10.32 0.86-9.92 1.32-9.32 1.64-8.57 1.81-7.63 1.86-6.5 1.75-4.04 1.18-2.24 0.69-1.84 0.58-1.43 0.47-0.99 0.33-0.53 0.18-0.1 0.03c-2.26 0.79-2.81 2.35-1.23 3.48s4.7 1.41 6.97 0.62l0.02-0.01 0.43-0.15 0.89-0.29 1.31-0.43 1.71-0.55 2.07-0.63 3.76-1.1 6.12-1.66 7.16-1.74 7.98-1.71 8.6-1.52 8.99-1.22 9.16-0.8 9.1-0.25 8.86 0.38 8.6 1.16 6.17 1.45 3.86 1.26 3.71 1.52 3.56 1.81 3.38 2.12 3.22 2.52 1.6 1.47c0.19 0.17 0.42 0.33 0.69 0.48l2.72 1.5 5.18 2.91 4.78 2.79 4.39 2.66 3.99 2.55 3.58 2.43 4.66 3.48 4.97 4.42 3.55 4.21 2.22 4.13 0.95 4.17-0.31 4.37-1.6 4.66-2.89 5.07-4.2 5.56-3.98 4.53-3.05 3.21-3.35 3.37-3.65 3.56-3.97 3.74-4.26 3.94-4.55 4.14-4.85 4.38-2.53 2.27 0.6-0.43-4.25 2.46-8.91 4.15-9.08 3.08-9.17 2.15-9.19 1.33-9.13 0.61-8.96 0.01-8.66-0.49-8.24-0.89-7.67-1.17-6.96-1.35-6.12-1.41-5.15-1.36-4.04-1.18-2.22-0.71-1.05-0.35-0.71-0.24-0.34-0.12-0.05-0.02c-2.23-0.82-5.36-0.58-6.99 0.54-1.63 1.11-1.14 2.68 1.09 3.49"/>
    <path d="m420.45 692.3c-13.37-0.09-24.06-22.16-23.89-49.31 0.18-27.14 11.15-49.07 24.52-48.99 13.36 0.09 24.06 22.16 23.88 49.3-0.17 27.15-11.15 49.08-24.51 49z" fill="#314400"/>
    <path d="m421.02 689.81l-1.24-0.07-1.06-0.34-1.08-0.6-1.55-1.08-1.77-1.58-1.81-2.06-1.77-2.49-1.69-2.87-1.55-3.23-1.42-3.55-1.81-5.88-1.74-8.7-0.88-9.46-0.09-4.93v0.06l0.16-5.02 1.02-9.49 1.86-8.67 1.9-5.83 1.46-3.52 1.62-3.23 1.74-2.87 1.85-2.5 1.93-2.08 1.94-1.62 1.88-1.12 1.63-0.6 1.13-0.1-0.15 0.11-1.02-0.01 1.24 0.08 1.05 0.33 1.09 0.61 1.55 1.08 1.76 1.58 1.82 2.06 1.77 2.48 1.68 2.88 1.56 3.23 1.41 3.55 1.81 5.88 1.75 8.69 0.88 9.47 0.08 4.93v-0.06l-0.15 5.02-1.02 9.49-1.87 8.66-1.89 5.84-1.46 3.52-1.62 3.22-1.75 2.88-1.85 2.49-1.92 2.08-1.95 1.63-1.87 1.12-1.63 0.6-1.14 0.1 0.16-0.11 4.92 1.37c-1.24-1.24-4.24-1.74-6.71-1.12s-3.47 2.12-2.24 3.35h0.01c0.92 0.92 2.87 1.47 4.91 1.38l2.65-0.23 3.76-0.87 3.1-1.34 2.69-1.71 2.42-2.08 2.22-2.43 2.05-2.78 1.87-3.11 1.71-3.42 1.54-3.74 1.96-6.1 1.92-8.93 1.03-9.68 0.15-5.03v-0.06l-0.09-5.12-0.93-9.73-1.8-8.95-1.89-6.1-1.5-3.75-1.68-3.46-1.87-3.16-2.05-2.83-2.27-2.51-2.56-2.17-2.97-1.82-3.63-1.39-3.82-0.7-1.25-0.07c-0.34-0.02-0.68-0.02-1.02-0.01l-2.65 0.22-3.75 0.88-3.11 1.33-2.69 1.72-2.42 2.08-2.21 2.43-2.05 2.78-1.87 3.11-1.71 3.42-1.55 3.74-1.96 6.1-1.91 8.93-1.03 9.68-0.16 5.02v0.07l0.1 5.12 0.92 9.72 1.81 8.96 1.89 6.1 1.5 3.75 1.68 3.46 1.86 3.15 2.06 2.84 2.27 2.51 2.55 2.17 2.98 1.82 3.63 1.39 3.82 0.7 1.24 0.07c2.75 0.16 5.23-0.83 5.54-2.2 0.32-1.37-1.65-2.61-4.39-2.77"/>
    <path d="m411.95 624.43c-2.61-12.77 18.91-27.37 19.83 17.52 0.85 41.87-12.67 38.53-17.63 31.09" fill="#2B2B2B"/>
    <path d="m415.69 624.3l-0.17-1.2 0.05-2.24 0.48-2.11 0.85-1.93 1.13-1.64 1.31-1.22 1.26-0.69 0.73-0.03-0.35 0.34-0.01 0.41 1.11 1.19 1.48 2.26 1.47 3.35 1.27 4.51 0.98 5.7 0.61 7 0.14 3.98v-0.02l0.04 3.8-0.16 6.79-0.45 5.8-0.69 4.89-0.9 4.02-1.08 3.2-1.2 2.45-1.25 1.72-1.21 1.02-0.89 0.34-0.39-0.27 0.01-0.73-1.45-1.57-0.76-1.06c-0.74-0.96-2.91-1.44-4.85-1.08-1.93 0.38-2.9 1.46-2.16 2.43l1.3 1.61 3.57 2.73 5.86 1.34 4.17-0.74 2.14-1.17 1.71-1.58 1.49-2.1 1.31-2.72 1.13-3.4 0.93-4.18 0.71-5 0.45-5.91 0.16-6.85-0.04-3.8v-0.02l-0.15-4.09-0.63-7.15-1.03-5.91-1.37-4.79-1.69-3.76-2.05-2.89-2.66-2.15-3.89-1.31-4.22 0.05-3 0.95-2.18 1.38-1.73 1.73-1.36 2.05-0.97 2.31-0.53 2.48-0.04 2.55 0.18 1.2c0.15 1.03 1.95 1.81 4.01 1.73 2.07-0.07 3.62-0.97 3.47-2"/>
    <path d="m428.71 628.38c-28.71 0.07-26.72 36.1-0.98 36.4" fill="#D4D4D4"/>
    <path d="m428.4 626.51l-2.61 0.11-5.57 0.9-4.99 1.75-3.97 2.4-2.99 2.86-2.13 3.17-1.37 3.4-0.65 3.53 0.03 3.57 0.7 3.52 1.36 3.37 2.03 3.14 2.71 2.8 3.47 2.39 4.32 1.84 5.27 1.14 3.3 0.25c2.06 0.11 3.91-0.63 4.14-1.66s-1.25-1.95-3.31-2.07l-1.38-0.01-3.26-0.54-3.06-1.19-2.76-1.8-2.32-2.32-1.8-2.72-1.25-3-0.66-3.16-0.06-3.21 0.54-3.15 1.13-2.95 1.7-2.64 2.18-2.23 2.58-1.73 2.93-1.21 3.77-0.7 2.61-0.11c2.06-0.09 3.59-0.99 3.42-2.03-0.18-1.03-1.99-1.8-4.05-1.71"/>
    <path d="m80.5 465.5c49.57 99.16 465.48 134.79 573.74 125.4 108.26-9.4 265.51-106.66 265.51-106.66l-275.87-0.9-404.37-57.11-159.01 39.27z" fill="#404040"/>
    <path d="m76.738 468.73l1.228 2.31 2.9 4.64 3.429 4.55 3.926 4.45 4.406 4.34 4.87 4.24 5.323 4.14 5.75 4.05 6.17 3.95 6.57 3.85 6.96 3.76 7.33 3.67 11.65 5.33 16.7 6.8 17.93 6.45 19.01 6.1 19.99 5.76 20.83 5.42 21.55 5.08 22.15 4.75 22.63 4.43 22.99 4.1 34.87 5.55 34.98 4.84 23.18 2.84 22.92 2.53 22.53 2.23 22.02 1.93 21.4 1.63 20.64 1.34 19.77 1.05 18.76 0.76 17.65 0.49 16.4 0.2 15.04-0.07 10.32-0.24 6.4-0.24 5.98-0.31 5.57-0.38 2.63-0.21c0.01 0 0.03 0 0.05-0.01l5.11-0.5 10.52-1.39 10.78-1.86 10.97-2.3 16.68-4.17 22.57-6.76 22.66-7.89 22.43-8.72 21.9-9.29 21.07-9.59 19.93-9.6 14.04-7.07 8.85-4.57 8.39-4.43 7.9-4.24 7.36-4.03 6.81-3.78 6.2-3.49 5.56-3.18 4.89-2.83 4.17-2.45 3.41-2.03 2.63-1.57 1.79-1.09 0.94-0.57 0.13-0.08c2.18-1.35 3.92-3.83 3.87-5.55-0.02-0.96-0.6-1.52-1.57-1.52l-275.87-0.89 0.31 0.02-404.37-57.11c-0.33-0.05-0.7-0.02-1.1 0.08l-159 39.27h-0.003c-1.997 0.49-4.331 2.61-5.213 4.74s0.022 3.45 2.019 2.96l159.01-39.27-1.09 0.08 404.38 57.12c0.09 0.01 0.2 0.02 0.3 0.02l275.87 0.89 2.3-7.07-0.09 0.06-0.88 0.53-1.73 1.05-2.56 1.54-3.35 1.99-4.1 2.4-4.8 2.79-5.49 3.13-6.12 3.45-6.72 3.73-7.28 3.98-7.8 4.19-8.28 4.37-8.72 4.51-13.84 6.97-19.67 9.49-20.78 9.45-21.58 9.16-22.07 8.6-22.26 7.75-22.18 6.65-16.39 4.11-10.71 2.24-10.51 1.83-10.31 1.36-5.11 0.51 0.05-0.01-2.55 0.21-5.48 0.37-5.9 0.31-6.32 0.24-10.23 0.23-14.95 0.07-16.33-0.2-17.59-0.48-18.7-0.76-19.72-1.05-20.59-1.33-21.34-1.63-21.98-1.93-22.48-2.22-22.87-2.53-23.12-2.83-34.9-4.83-34.8-5.53-22.92-4.09-22.57-4.41-22.08-4.74-21.47-5.06-20.75-5.4-19.89-5.72-18.91-6.07-17.81-6.41-16.58-6.74-11.56-5.29-7.26-3.63-6.88-3.72-6.48-3.8-6.08-3.88-5.65-3.97-5.21-4.06-4.755-4.13-4.287-4.22-3.801-4.29-3.302-4.37-2.804-4.47-1.229-2.32c-0.67-1.26-2.898-0.83-4.976 0.95-2.077 1.78-3.218 4.25-2.548 5.51" fill="#151515"/>
    <path d="m167.1 328.44s-77.905 10.87-86.252 27.47c-8.348 16.59-30.922 71.34-0.348 109.59 46.43 33.75 110 44 159.01-39.27 43.99-97.73-72.41-97.79-72.41-97.79z" fill="url(#Gradient_1)"/>
    <path d="m169.07 324.51l-0.05 0.01-0.45 0.07-1.45 0.21-3.23 0.5-4.53 0.73-5.6 0.97-6.46 1.18-7.1 1.4-7.54 1.62-11.64 2.78-11.44 3.24-7.22 2.41-6.614 2.61-5.907 2.87-5.152 3.26-4.501 4.11-2.384 3.24c-0.151 0.24-0.286 0.47-0.402 0.71l-0.822 1.66-1.909 4.1-2.108 4.91-2.189 5.6-2.173 6.23-2.056 6.77-1.839 7.23-1.523 7.61-1.105 7.9-0.587 8.12 0.033 8.25 0.751 8.3 1.571 8.27 2.489 8.16 3.507 7.95 4.622 7.67 2.784 3.74c0.08 0.11 0.176 0.2 0.286 0.28l4.401 3.09 9.136 5.76 9.501 5.07 9.8 4.25 10.07 3.35 10.29 2.34 10.48 1.2 10.65-0.03 10.8-1.39 10.91-2.88 11.03-4.53 8.42-4.62 5.65-3.72 5.53-4.14 5.48-4.63 5.41-5.12 5.33-5.6 5.22-6.09 5.11-6.58 5-7.06 4.88-7.57 2.43-4.04c0.17-0.28 0.32-0.56 0.43-0.83l1.95-4.51 3.31-8.86 2.47-8.4 1.62-7.86 0.82-7.32 0.08-6.81-0.62-6.31-1.24-5.81-1.82-5.35-2.35-4.9-2.81-4.47-3.23-4.06-3.59-3.68-3.89-3.31-4.15-2.97-4.35-2.65-6.77-3.39-9.28-3.57-9.18-2.64-8.68-1.83-5.94-0.93-3.59-0.45-3.23-0.33-2.82-0.23-2.36-0.15-1.85-0.08-1.3-0.04-0.69-0.02h-0.11c-1.74 0-4.22 1.76-5.54 3.94-1.31 2.18-0.97 3.96 0.77 3.97h0.06l0.62 0.01 1.22 0.04 1.78 0.08 2.28 0.14 2.73 0.22 3.13 0.32 3.46 0.43 5.76 0.9 8.43 1.77 8.92 2.55 9.02 3.46 6.57 3.28 4.19 2.54 3.98 2.83 3.72 3.16 3.42 3.48 3.06 3.84 2.67 4.2 2.21 4.57 1.71 4.96 1.18 5.38 0.59 5.79-0.04 6.24-0.73 6.71-1.45 7.19-2.23 7.71-3.11 8.34-1.95 4.51 0.43-0.82-2.18 3.62-4.47 6.97-4.51 6.41-4.54 5.86-4.55 5.35-4.57 4.85-4.6 4.39-4.61 3.94-4.66 3.52-4.6 3.07-7.07 3.98-9.78 4.1-9.95 2.69-10.08 1.34-10.1 0.06-10.07-1.14-9.97-2.25-9.82-3.25-9.59-4.16-9.333-4.97-9.026-5.68-4.403-3.1 0.286 0.28-2.641-3.52-4.459-7.36-3.379-7.61-2.399-7.79-1.516-7.88-0.733-7.9-0.046-7.84 0.543-7.71 1.036-7.49 1.431-7.21 1.731-6.84 1.933-6.39 2.038-5.86 2.045-5.26 1.953-4.56 1.782-3.83 0.823-1.67-0.403 0.72-0.42 0.16 1.656-1.84 3.618-2.39 5.044-2.49 6.082-2.42 6.797-2.28 11.11-3.14 11.44-2.75 7.42-1.58 7.01-1.39 6.38-1.17 5.54-0.95 4.47-0.73 3.19-0.49 1.42-0.21 0.43-0.06 0.06-0.01c1.89-0.27 4.31-2.24 5.39-4.41 1.09-2.16 0.44-3.7-1.46-3.44" fill="#151515"/>
    <path d="m244 425.73l-20 31.27s84 26.47 104.5 26.74c277.17 55.26 450.54 14.26 450.54 14.26l4.35-14.26-140.01-0.9-399.38-57.11z" fill="#808080"/>
    <path d="m167.1 328.44c1.4 1.06 38.88-123.95 64.64-147.94 25.76-24 69.2-58.89 168.33-40.44 99.13 18.44 398.1 163.08 398.1 163.08s58.41 13.89 113.33-41.65c44.08-44.59 124.9 24.34 126.7 26 1.8 1.67 1.3 3.34-2.7 18.01s-54.71 76.13-54.52 76.33c0.18 0.2 39.12 16.5 40.52 24 1.4 7.51-4 81.34-94.52 78.31-56.79-1.89-227.48 6.69-283.1-0.8-49.71-7.17-404.37-57.11-404.37-57.11s44.99-92.73-72.41-97.79z" fill="url(#Gradient_2)"/>
    <path d="m166.4 331.97l0.09-0.04 4.36-4.41 0.84-1.93 0.79-2.09 0.93-2.6 1.09-3.11 1.25-3.6 1.4-4.06 1.54-4.48 1.68-4.86 2.75-7.91 4.07-11.51 4.45-12.28 4.76-12.73 5.01-12.83 5.18-12.61 5.27-12.04 5.29-11.12 5.2-9.83 3.75-6.24 2.35-3.47 2.24-2.95 2.04-2.27 0.73-0.68-0.23 0.22 2.46-2.28 5.15-4.59 5.53-4.61 6.01-4.58 6.56-4.5 7.2-4.33 7.91-4.11 8.7-3.78 9.56-3.38 10.48-2.88 11.48-2.28 9.26-1.25 6.5-0.59 6.81-0.38 7.09-0.17 7.37 0.07 7.68 0.31 7.97 0.57 8.28 0.84 8.6 1.12 8.91 1.42 4.57 0.82-0.02-0.01 2.36 0.45 4.9 1.04 7.86 1.89 11.4 3.09 12.35 3.72 13.21 4.27 13.98 4.8 14.65 5.26 15.23 5.68 15.72 6.05 16.11 6.37 24.72 10.04 33.49 14.05 33.43 14.42 24.59 10.82 15.99 7.13 15.57 7 15.04 6.82 14.44 6.6 13.74 6.32 12.94 5.99 12.06 5.61 11.09 5.19 10.01 4.72 6.76 3.19 4.13 1.96 3.8 1.81 3.48 1.65 3.14 1.49 2.78 1.34 2.42 1.16 2.05 0.98 1.66 0.79 1.26 0.61 0.85 0.41 0.43 0.21 0.06 0.02c0.1 0.06 0.22 0.1 0.34 0.12l0.17 0.04 1.37 0.27 2.62 0.42 3.78 0.43 4.85 0.33 5.82 0.1 6.73-0.25 7.52-0.73 8.25-1.33 8.9-2.07 9.46-2.93 9.94-3.94 10.34-5.09 10.66-6.37 10.86-7.8 10.95-9.34 5.61-5.42-0.04 0.04 2.09-2 3.74-3.01 3.72-2.33 3.96-1.93 4.23-1.52 4.48-1.13 4.68-0.71 4.84-0.3 7.51 0.27 10.18 1.59 10.17 2.79 9.99 3.72 9.62 4.39 9.07 4.81 8.3 4.96 7.4 4.85 4.9 3.39 2.9 2.09 2.5 1.91 2.2 1.7 1.9 1.46 1.4 1.18 1.1 0.86 0.6 0.53 0.1 0.11-0.1-0.11 0.5 0.65 0.2 0.82-0.1 0.64-0.3 1.45-0.5 2.3-0.9 3.26-1.1 4.32-0.7 2.59v-0.14l-0.2 0.72-0.5 1.28-1.2 2.46-2.5 4.2-3.2 5.01-3.8 5.66-4.3 6.1-7.1 9.62-7.3 9.61-4.78 6.14-4.51 5.75-4.11 5.2-3.57 4.49-2.23 2.8-1.25 1.56-1.04 1.31-0.81 1.03-0.59 0.75-0.41 0.55-0.69 1.09c-0.84 1.59-0.77 2.94 0.16 3.42l0.13 0.06 0.94 0.43 1.63 0.72 2.25 1 2.75 1.25 3.17 1.46 5.25 2.51 7.41 3.75 6.9 3.94 4.4 2.88 2.4 1.8 1.6 1.65 1 1.4v0.37-0.34l0.1 0.89v2.61l-0.3 3.85-0.7 4.9-1.2 5.68-1.9 6.23-2.6 6.54-3.5 6.59-4.2 6.41-5.21 6.03-4.41 4.08-3.25 2.55-3.72 2.53-4.09 2.4-4.52 2.24-4.95 2.04-5.41 1.82-5.88 1.55-6.35 1.25-6.85 0.91-7.33 0.54-7.85 0.15-4.08-0.09h0.02l-2.74-0.08-5.99-0.12-6.6-0.06-7.15-0.02-7.68 0.03-8.14 0.07-13.02 0.16-18.64 0.32-19.8 0.38-31.13 0.63-31.84 0.56-21.06 0.28-20.55 0.16-19.68-0.01-18.5-0.21-12.87-0.32-8.03-0.29-7.55-0.36-7.01-0.44-6.44-0.52-5.81-0.61-2.65-0.33h0.04l-1.22-0.17-2.78-0.4-3.19-0.46-3.6-0.51-6.14-0.88-9.47-1.35-10.84-1.54-12.08-1.71-13.2-1.87-14.21-2.01-15.08-2.13-15.85-2.24-16.48-2.33-17.01-2.4-26.21-3.7-35.64-5.03-35.54-5.01-26.01-3.67-16.8-2.37-16.24-2.29-15.54-2.19-14.74-2.08-13.81-1.94-12.75-1.8-11.58-1.63-10.29-1.45-8.88-1.25-5.66-0.8-3.26-0.46-2.85-0.4-2.41-0.34-1.95-0.27-1.49-0.21-1.01-0.14-0.51-0.08h-0.07l0.8 3.33 0.03-0.06 0.28-0.61 0.5-1.11 0.66-1.59 0.8-2.02 0.88-2.43 1.41-4.28 1.85-6.8 1.53-7.84 0.89-8.57-0.06-9.03-1.32-9.22-2.01-6.91-1.91-4.53-2.38-4.38-2.92-4.24-3.47-4.07-4.07-3.85-4.71-3.61-5.39-3.34-6.09-3.02-6.84-2.68-7.62-2.3-8.45-1.9-9.3-1.46-10.19-0.98-5.48-0.31c-1.69-0.1-4.18 1.59-5.56 3.78-1.39 2.18-1.14 4.02 0.55 4.12l5.29 0.29 9.96 0.96 9.06 1.41 8.2 1.83 7.39 2.22 6.61 2.58 5.87 2.9 5.17 3.19 4.51 3.44 3.89 3.66 3.31 3.85 2.76 4.01 2.27 4.13 1.78 4.19 1.91 6.41 1.27 8.62 0.09 8.42-0.8 7.97-1.4 7.27-1.7 6.33-1.3 3.97-0.8 2.18-0.7 1.79-0.57 1.37-0.41 0.92-0.2 0.45-0.04 0.07c-0.85 1.78-0.52 3.15 0.8 3.34l0.07 0.01 0.51 0.07 1.01 0.14 1.49 0.21 1.95 0.28 2.41 0.34 2.84 0.4 3.27 0.46 5.66 0.79 8.87 1.25 10.29 1.45 11.59 1.63 12.75 1.8 13.81 1.95 14.73 2.07 15.55 2.19 16.24 2.29 16.8 2.37 26.01 3.67 35.54 5.01 35.64 5.03 26.21 3.7 17 2.4 16.49 2.33 15.84 2.24 15.09 2.14 14.2 2 13.2 1.88 12.08 1.71 10.84 1.54 9.47 1.34 6.14 0.88 3.6 0.51 3.19 0.46 2.77 0.4 1.22 0.18h0.03l2.74 0.34 5.92 0.62 6.51 0.53 7.08 0.44 7.61 0.37 8.08 0.29 12.94 0.31 18.55 0.21 19.73 0.01 20.57-0.15 21.09-0.28 31.85-0.57 31.13-0.62 19.78-0.39 18.62-0.31 13-0.17 8.12-0.07 7.64-0.02 7.12 0.01 6.55 0.07 5.94 0.12 2.75 0.08h0.02l4.28 0.08 8.15-0.16 7.7-0.58 7.27-0.98 6.85-1.37 6.47-1.73 6.1-2.07 5.74-2.41 5.41-2.72 5.06-3.02 4.72-3.28 4.49-3.62 6-5.7 6.4-7.77 5.1-7.83 4-7.69 2.9-7.37 2-6.86 1.4-6.2 0.7-5.34 0.3-4.32-0.1-3.09-0.1-0.89v-0.35l-0.5-1.08-1.2-1.79-1.9-1.83-2.5-1.92-4.5-2.97-7.1-3.99-7.5-3.78-5.25-2.53-3.18-1.47-2.77-1.26-2.26-1.01-1.61-0.71-0.82-0.37-0.13-0.06 0.16 3.42-0.63 0.98 0.13-0.18 0.5-0.64 0.78-0.99 1.03-1.28 1.25-1.57 2.25-2.82 3.6-4.53 4.17-5.27 4.58-5.84 4.8-6.27 7.5-9.83 7.3-9.88 4.5-6.4 4.1-6.07 3.6-5.63 2.9-5.04 1.6-3.36 0.8-2 0.2-0.72v-0.14l0.7-2.61 1.2-4.41 0.9-3.49 0.6-2.77 0.4-2.26-0.1-1.99-0.7-1.8-0.5-0.65c-0.1-0.04-0.1-0.08-0.2-0.11l-0.1-0.15-0.6-0.54-1.1-0.88-1.5-1.2-1.8-1.48-2.3-1.72-2.6-1.94-2.9-2.11-4.9-3.44-7.5-4.9-8.5-5.03-9.17-4.88-9.81-4.48-10.27-3.81-10.57-2.87-10.7-1.65-8.03-0.26-5.4 0.37-5.4 0.86-5.41 1.42-5.41 2.04-5.41 2.75-5.32 3.5-4.92 4.06-2.1 2.01c-0.01 0.01-0.03 0.02-0.04 0.04l-4.7 4.59-9.72 8.37-9.69 7.02-9.6 5.8-9.45 4.68-9.2 3.68-8.84 2.77-8.4 1.97-7.84 1.27-7.19 0.71-6.44 0.25-5.59-0.1-4.64-0.31-3.61-0.41-2.48-0.39-1.27-0.25-0.18-0.03 0.35 0.11-0.06-0.02-0.43-0.21-0.85-0.41-1.27-0.61-1.66-0.8-2.04-0.98-2.43-1.16-2.78-1.33-3.14-1.5-3.48-1.66-3.81-1.81-4.13-1.95-6.76-3.2-10.03-4.71-11.08-5.2-12.07-5.61-12.95-6-13.74-6.32-14.45-6.6-15.05-6.83-15.58-7-16-7.14-24.61-10.83-33.46-14.43-33.52-14.05-24.74-10.06-16.15-6.38-15.74-6.06-15.27-5.69-14.69-5.28-14.03-4.81-13.28-4.3-12.43-3.74-11.5-3.12-7.96-1.9-4.97-1.05-2.36-0.46h-0.02l-4.65-0.84-9.02-1.43-8.72-1.13-8.41-0.85-8.11-0.58-7.83-0.32-7.54-0.06-7.27 0.17-7.01 0.4-6.77 0.62-9.69 1.32-12.04 2.41-11.15 3.09-10.3 3.67-9.49 4.17-8.74 4.57-8 4.85-7.31 5.04-6.64 5.09-6.01 5.02-5.4 4.82-2.47 2.29c-0.08 0.07-0.16 0.14-0.23 0.22l-1.71 1.71-2.92 3.36-2.82 3.75-2.81 4.2-4.14 6.93-5.46 10.35-5.45 11.47-5.38 12.29-5.25 12.79-5.06 12.98-4.81 12.83-4.47 12.36-4.08 11.55-2.76 7.94-1.68 4.87-1.55 4.47-1.39 4.05-1.23 3.56-1.07 3.04-0.88 2.44-0.66 1.76-0.23 0.66 3.68-3.18-0.09 0.04c-2.15 0.98-4.21 3.36-4.59 5.31-0.39 1.95 1.03 2.74 3.18 1.76" fill="#151515"/>
    <path d="m1007.9 399.34v2.96l-0.6 5.99-1.1 6.17-1.6 6.32-2.2 6.38-2.61 6.39-3.05 6.3-3.44 6.15-3.78 5.92-4.1 5.62-4.35 5.23-4.57 4.8-4.76 4.28-4.9 3.71-5.02 3.1-5.15 2.44-2.52 0.92c-1.25 0.46-2.57 1.84-2.93 3.06s0.37 1.84 1.63 1.37l3.11-1.17 5.99-2.9 5.84-3.67 5.65-4.33 5.39-4.91 5.11-5.39 4.79-5.8 4.44-6.14 4.07-6.39 3.66-6.59 3.2-6.71 2.8-6.77 2.3-6.75 1.7-6.67 1.2-6.51 0.5-6.25 0.1-2.96c0-1.06-1-1.29-2.4-0.51-1.3 0.77-2.3 2.25-2.4 3.31" fill="#151515"/>
    <path d="m998.46 399.34l-0.05 2.96-0.55 5.99-1.12 6.17-1.65 6.32-2.16 6.38-2.62 6.39-3.05 6.3-3.44 6.15-3.78 5.92-4.1 5.62-4.35 5.23-4.57 4.8-4.76 4.28-4.9 3.71-5.02 3.1-5.15 2.44-2.52 0.92c-1.25 0.46-2.57 1.84-2.93 3.06s0.37 1.84 1.62 1.37l3.12-1.17 5.99-2.9 5.84-3.67 5.65-4.33 5.39-4.91 5.11-5.39 4.79-5.8 4.44-6.14 4.07-6.39 3.66-6.59 3.24-6.71 2.76-6.77 2.27-6.75 1.71-6.67 1.2-6.51 0.6-6.25v-2.96c0-1.06-1-1.29-2.3-0.51-1.35 0.77-2.42 2.25-2.44 3.31" fill="#151515"/>
    <path d="m988.12 399.34l-0.05 2.96-0.55 5.99-1.12 6.17-1.66 6.32-2.16 6.38-2.62 6.39-3.05 6.3-3.43 6.15-3.79 5.92-4.09 5.62-4.35 5.23-4.58 4.8-4.75 4.28-4.9 3.71-5.03 3.1-5.14 2.44-2.52 0.92c-1.26 0.46-2.57 1.84-2.93 3.06-0.37 1.22 0.36 1.84 1.62 1.37l3.12-1.17 5.98-2.9 5.85-3.67 5.64-4.33 5.4-4.91 5.11-5.39 4.78-5.8 4.45-6.14 4.07-6.39 3.66-6.59 3.23-6.71 2.77-6.77 2.27-6.75 1.73-6.67 1.17-6.51 0.56-6.25 0.05-2.96c0.02-1.06-1.03-1.29-2.34-0.51-1.31 0.77-2.39 2.25-2.4 3.31" fill="#151515"/>
    <path d="m978.6 397.34l-0.04 2.96-0.56 5.99-1.12 6.17-1.65 6.32-2.16 6.38-2.62 6.39-3.05 6.3-3.44 6.15-3.78 5.92-4.1 5.62-4.35 5.23-4.57 4.8-4.76 4.28-4.9 3.71-5.02 3.1-5.15 2.44-2.52 0.92c-1.25 0.46-2.57 1.84-2.93 3.06s0.37 1.84 1.62 1.37l3.12-1.17 5.99-2.9 5.84-3.67 5.65-4.33 5.39-4.91 5.11-5.39 4.79-5.8 4.44-6.14 4.07-6.39 3.66-6.59 3.24-6.71 2.76-6.77 2.27-6.75 1.74-6.67 1.16-6.51 0.57-6.25 0.04-2.96c0.02-1.06-1.03-1.29-2.34-0.51-1.31 0.77-2.38 2.25-2.4 3.31" fill="#151515"/>
    <g fill="#2B2B2B">
      <path d="m846.69 326.42l0.12 0.01 0.44 0.18 1.26 0.49 1.85 0.75 2.37 0.99 2.85 1.21 3.28 1.4 3.68 1.58 6.15 2.67 9.2 4.01 10.01 4.39 10.5 4.61 10.66 4.7 10.48 4.63 9.98 4.42 9.14 4.05 6.11 2.71 3.64 1.61 3.24 1.44 2.81 1.25 2.32 1.03 1.81 0.81 1.25 0.55 0.64 0.29 0.08 0.03c0.8 0.36 2.28-0.38 3.32-1.64s1.24-2.57 0.45-2.92l-0.09-0.04-0.64-0.29-1.24-0.55-1.81-0.8-2.33-1.04-2.8-1.24-3.24-1.44-3.64-1.62-6.11-2.71-9.14-4.05-9.98-4.41-10.49-4.64-10.66-4.7-10.5-4.62-10.02-4.38-9.2-4.01-6.16-2.67-3.67-1.59-3.29-1.4-2.86-1.21-2.39-1-1.87-0.76-1.35-0.52-0.98-0.28-0.11-0.01c-1-0.08-2.5 0.92-3.35 2.23-0.84 1.31-0.72 2.43 0.28 2.5"/>
      <path d="m861.86 322.64l0.11 0.01 0.38 0.17 1.17 0.46 1.72 0.71 2.22 0.94 2.65 1.15 3.06 1.33 3.43 1.51 5.73 2.54 8.57 3.81 9.33 4.18 9.78 4.4 9.93 4.47 9.77 4.41 9.29 4.21 8.52 3.86 5.69 2.58 3.39 1.54 3.02 1.37 2.61 1.18 2.16 0.99 1.69 0.76 1.16 0.53 0.6 0.27 0.07 0.04c0.79 0.36 2.28-0.37 3.32-1.63 1.05-1.26 1.25-2.57 0.46-2.93l-0.07-0.04-0.6-0.27-1.16-0.53-1.69-0.76-2.16-0.99-2.62-1.19-3.02-1.37-3.39-1.53-5.68-2.58-8.52-3.86-9.3-4.21-9.76-4.41-9.94-4.48-9.78-4.4-9.33-4.17-8.57-3.82-5.74-2.54-3.43-1.51-3.07-1.34-2.66-1.15-2.23-0.94-1.76-0.73-1.26-0.49-0.95-0.27-0.11-0.01c-1.01-0.07-2.51 0.94-3.34 2.25-0.84 1.31-0.7 2.42 0.31 2.48"/>
      <path d="m881 319.36l0.11 0.01 0.27 0.14 1.04 0.4 1.52 0.64 1.97 0.84 2.35 1.02 2.71 1.2 3.04 1.35 5.08 2.28 7.59 3.42 12.56 5.71 17.52 8.01 12.52 5.75 7.53 3.46 5.04 2.32 3 1.39 2.67 1.23 2.31 1.07 1.92 0.88 1.49 0.69 1.03 0.47 0.53 0.25 0.06 0.03c0.79 0.36 2.28-0.36 3.32-1.62 1.05-1.26 1.26-2.57 0.47-2.94l-0.07-0.03-0.52-0.24-1.03-0.48-1.49-0.69-1.92-0.88-2.31-1.07-2.67-1.23-3-1.38-5.04-2.32-7.54-3.47-12.52-5.75-17.52-8.01-12.56-5.71-7.6-3.43-5.08-2.28-3.04-1.35-2.72-1.2-2.37-1.03-1.98-0.85-1.56-0.65-1.14-0.44-0.91-0.24-0.11-0.01c-1.02-0.03-2.51 1-3.33 2.31-0.81 1.31-0.64 2.4 0.38 2.43"/>
      <path d="m892.64 312.41h0.1l0.22 0.13 0.98 0.38 1.44 0.59 1.85 0.79 2.22 0.97 3.95 1.75 6.26 2.8 7.16 3.23 11.84 5.39 16.5 7.57 11.8 5.42 7.1 3.28 6.2 2.86 3.89 1.8 2.18 1.01 1.81 0.83 1.4 0.65 0.97 0.45 0.5 0.23 0.06 0.03c0.79 0.37 2.27-0.36 3.32-1.61 1.05-1.26 1.26-2.58 0.47-2.94l-0.06-0.03-0.5-0.23-0.97-0.45-1.4-0.65-1.81-0.84-2.18-1.01-3.9-1.8-6.19-2.86-7.11-3.27-11.79-5.43-16.51-7.57-11.85-5.39-7.16-3.23-6.27-2.81-3.96-1.75-2.23-0.97-1.87-0.8-1.48-0.61-1.08-0.42-0.9-0.23h-0.1c-1.03-0.02-2.52 1.02-3.32 2.33-0.81 1.31-0.62 2.39 0.42 2.41"/>
      <path d="m901.75 304.2l0.1 0.01 0.22 0.12 0.95 0.37 1.42 0.59 1.82 0.78 2.18 0.96 3.9 1.73 6.15 2.77 7.04 3.2 11.65 5.33 16.24 7.48 11.6 5.37 6.99 3.24 6.09 2.83 3.83 1.78 2.14 1 1.78 0.83 1.38 0.64 0.95 0.44 0.49 0.23 0.07 0.03c0.78 0.37 2.27-0.35 3.32-1.61 1.04-1.26 1.26-2.58 0.47-2.94l-0.06-0.03-0.49-0.23-0.95-0.44-1.39-0.65-1.77-0.82-2.15-1-3.83-1.78-6.09-2.83-6.99-3.24-11.61-5.38-16.24-7.48-11.65-5.33-7.04-3.2-6.17-2.78-3.9-1.73-2.2-0.96-1.83-0.79-1.46-0.61-1.07-0.41-0.9-0.23h-0.09c-1.04-0.02-2.53 1.03-3.33 2.34s-0.6 2.39 0.43 2.4"/>
      <path d="m917.79 299.2h0.09l0.16 0.11 0.88 0.32 1.32 0.51 1.7 0.68 2.04 0.84 3.64 1.52 5.75 2.44 6.56 2.81 10.87 4.69 15.15 6.59 10.82 4.73 6.52 2.86 5.68 2.49 3.57 1.57 2 0.88 1.66 0.73 1.29 0.57 0.89 0.39 0.45 0.2 0.06 0.03c0.8 0.35 2.31-0.39 3.31-1.65 1.1-1.26 1.3-2.57 0.5-2.92l-0.1-0.03-0.5-0.2-0.9-0.39-1.24-0.57-1.66-0.73-2-0.88-3.57-1.57-5.68-2.49-6.52-2.86-10.83-4.73-15.15-6.59-10.87-4.7-6.58-2.81-5.75-2.44-3.65-1.52-2.05-0.85-1.72-0.69-1.36-0.53-1.01-0.36-0.89-0.19h-0.1c-1.06 0.02-2.54 1.1-3.31 2.41s-0.53 2.36 0.53 2.33"/>
    </g>
    <path d="m771.57 498.08l8.05-12.84s162.75 83.47 222.38 114.58c25.4 10.89-8.38 9.75-79.5 9.82-71.13 0.07-150.93-111.56-150.93-111.56z" fill="#314400"/>
    <path d="m774.66 498.21l0.09-0.14 0.65-1.04 1.12-1.8 1.41-2.24 1.5-2.4 1.4-2.25 1.13-1.79 0.65-1.04 0.09-0.15-6.29 3.65 0.11 0.06 0.93 0.47 1.81 0.93 2.64 1.35 3.42 1.76 4.16 2.13 4.84 2.49 5.48 2.81 6.07 3.12 6.61 3.39 7.1 3.65 7.54 3.87 7.94 4.08 8.28 4.26 12.96 6.66 18.04 9.27 18.54 9.54 18.65 9.61 18.38 9.47 17.72 9.15 12.61 6.52 8 4.13 7.61 3.95 7.18 3.72 6.7 3.48 6.16 3.21 2.87 1.49c0.03 0.02 0.05 0.03 0.08 0.04l2.16 0.99 3.4 1.73 1.8 1.41 0.4 0.9-0.2-1.68 2.2-3.09-1.9 0.28-3.8 0.48-5.1 0.39-6.33 0.29-7.45 0.19-8.53 0.11-9.56 0.06-10.55 0.01h-11.51l-12.44-0.01-6.56 0.01h0.05l-3.33-0.08-6.55-0.62-6.57-1.19-6.61-1.74-6.63-2.25-6.63-2.72-9.91-4.88-13.01-7.78-12.64-8.92-12.16-9.74-11.53-10.25-10.77-10.41-9.88-10.25-6.74-7.39-4.15-4.7-3.85-4.48-3.54-4.22-3.22-3.91-2.86-3.56-2.51-3.18-2.13-2.75-1.73-2.28-1.33-1.77-0.89-1.22-0.45-0.62-0.06-0.08c-0.81-1.13-3.11-0.53-5.14 1.33-2.03 1.87-3.01 4.3-2.2 5.43l0.07 0.09 0.46 0.64 0.91 1.23 1.33 1.78 1.75 2.3 2.14 2.77 2.52 3.19 2.89 3.59 3.23 3.93 3.56 4.24 3.87 4.51 4.18 4.73 6.79 7.44 9.94 10.31 10.85 10.49 11.63 10.32 12.28 9.84 12.81 9.03 13.2 7.88 10.09 4.96 6.81 2.79 6.85 2.32 6.89 1.8 6.91 1.24 6.86 0.63 3.35 0.08h6.61l12.44 0.01h11.52l10.58-0.02 9.6-0.05 8.58-0.12 7.56-0.19 6.51-0.3 5.47-0.42 4.56-0.62 4.1-1.11 5.7-4.85 0.8-3.82-1.1-1.67-2.2-1.62-3.5-1.81-2.2-0.99 0.1 0.04-2.9-1.5-6.14-3.21-6.7-3.48-7.18-3.72-7.61-3.94-8-4.14-12.62-6.52-17.71-9.15-18.38-9.47-18.66-9.61-18.54-9.54-18.03-9.27-12.97-6.67-8.28-4.25-7.94-4.08-7.54-3.87-7.1-3.65-6.61-3.39-6.07-3.12-5.48-2.81-4.84-2.49-4.16-2.13-3.42-1.76-2.64-1.35-1.81-0.93-0.93-0.48-0.12-0.06c-0.2-0.1-0.45-0.16-0.73-0.18-1.7-0.07-4.19 1.64-5.56 3.83l-0.09 0.14-0.65 1.04-1.12 1.8-1.41 2.24-1.5 2.4-1.4 2.24-1.13 1.8-0.65 1.04-0.09 0.15c-1.37 2.18-1.09 4 0.61 4.08 1.7 0.06 4.19-1.65 5.56-3.83" fill="#151515"/>
    <path d="m329.57 478.5c-12 37.33 194.81 217.1 313 231 51 6 225.45-14.4 236.37-15 4.89-2.33 9.13-10.97 9.13-10.97l-549.5-242.03s3-0.33-9 37z" fill="#4F6E00"/>
    <path d="m325.74 480.02l-0.24 0.9-0.34 2.45 0.04 2.58 0.39 2.62 0.7 2.71 0.99 2.83 2 4.49 3.61 6.49 4.63 7.05 5.59 7.55 6.5 8 7.36 8.41 8.16 8.75 8.9 9.04 9.59 9.29 10.23 9.46 10.8 9.6 11.32 9.66 11.79 9.68 12.2 9.64 12.56 9.54 12.85 9.39 13.09 9.18 13.28 8.92 13.4 8.59 13.48 8.21 13.5 7.78 13.47 7.29 13.37 6.74 13.22 6.13 13.02 5.48 12.76 4.76 12.45 3.99 12.09 3.15 11.68 2.27 5.71 0.79c0.02 0.01 0.05 0.01 0.07 0.01l2.48 0.26 5.54 0.42 6.19 0.28 6.77 0.13 7.3 0.02 7.77-0.11 8.21-0.21 8.58-0.31 13.47-0.64 18.79-1.12 19.37-1.37 19.52-1.55 19.26-1.66 18.57-1.7 17.48-1.68 12.13-1.2 7.52-0.76 7.01-0.71 6.44-0.66 5.83-0.6 5.15-0.53 4.43-0.45 3.66-0.37 2.82-0.27 1.92-0.17 0.58-0.03c0.59-0.04 1.28-0.27 1.99-0.67l0.9-0.51 2.84-2.09 3.59-3.75 2.68-3.67 1.31-2.1 0.86-1.51 0.48-0.9 0.1-0.21c0.79-1.58 0.68-2.89-0.3-3.32l-0.09-0.04-0.8-0.35-1.55-0.69-2.3-1.01-3.02-1.33-3.71-1.64-4.38-1.92-5.01-2.21-5.64-2.49-6.22-2.74-6.79-2.99-7.33-3.23-7.85-3.45-8.34-3.67-8.8-3.88-9.25-4.07-9.65-4.26-10.05-4.42-10.41-4.59-10.76-4.74-16.71-7.36-23.23-10.23-24.14-10.63-24.84-10.94-38.15-16.8-51.45-22.66-38.14-16.81-24.85-10.94-24.14-10.63-23.23-10.23-16.71-7.36-10.75-4.74-10.42-4.59-10.05-4.42-9.65-4.26-9.25-4.07-8.8-3.87-8.34-3.68-7.84-3.45-7.34-3.23-6.78-2.99-6.23-2.74-5.63-2.49-5.02-2.2-4.38-1.93-3.71-1.64-3.01-1.33-2.3-1.01-1.56-0.69-0.79-0.34-0.1-0.05-5.89 7.73 0.03 0.01-0.71-0.29-0.17 0.14-0.07 0.87-0.14 1.08-0.26 1.58-0.41 2.06-0.6 2.61-0.8 3.19-1.04 3.85-1.29 4.54-1.59 5.29-1.9 6.1-1.07 3.36c-0.66 2.06 0.5 3.14 2.58 2.42s4.3-2.98 4.96-5.04l1.09-3.42 1.93-6.2 1.62-5.4 1.33-4.67 1.07-3.99 0.85-3.37 0.64-2.81 0.45-2.31 0.31-1.86 0.17-1.55 0.03-1.76-0.43-1.56-1.05-0.71h-0.03c-1.41-0.25-3.6 0.97-5.16 2.86-1.73 2.1-2.05 4.28-0.72 4.87l0.1 0.04 0.79 0.35 1.56 0.69 2.3 1.01 3.02 1.33 3.71 1.63 4.37 1.93 5.02 2.21 5.63 2.48 6.23 2.74 6.79 2.99 7.33 3.23 7.85 3.46 8.33 3.67 8.81 3.88 9.24 4.07 9.66 4.25 10.04 4.43 10.42 4.58 10.75 4.74 16.71 7.36 23.23 10.23 24.14 10.64 24.85 10.94 38.14 16.8 51.45 22.66 38.15 16.8 24.84 10.95 24.14 10.63 23.24 10.23 16.71 7.36 10.75 4.74 10.41 4.58 10.05 4.43 9.66 4.25 9.24 4.07 8.8 3.88 8.34 3.67 7.85 3.46 7.33 3.23 6.79 2.99 6.22 2.74 5.64 2.48 5.01 2.21 4.38 1.93 3.71 1.63 3.02 1.33 2.3 1.02 1.56 0.68 0.79 0.35 0.1 0.04-0.3-3.31 0.01-0.02-0.27 0.53-0.56 1.01-0.7 1.17-1.24 1.87-1.16 1.49-0.67 0.64-0.91 0.51 1.99-0.67-0.69 0.05-1.98 0.17-2.84 0.27-3.67 0.37-4.43 0.45-5.16 0.53-5.82 0.6-6.44 0.66-7.01 0.72-7.51 0.75-12.11 1.2-17.44 1.68-18.55 1.7-19.22 1.65-19.47 1.55-19.31 1.36-18.72 1.12-13.4 0.63-8.53 0.31-8.14 0.22-7.7 0.1-7.21-0.01-6.65-0.13-6.05-0.27-5.41-0.41-2.48-0.26 0.06 0.01-5.5-0.76-11.45-2.22-11.92-3.1-12.31-3.94-12.65-4.72-12.92-5.43-13.14-6.1-13.3-6.7-13.4-7.25-13.44-7.74-13.43-8.19-13.36-8.56-13.24-8.88-13.05-9.15-12.81-9.36-12.51-9.51-12.17-9.61-11.75-9.65-11.29-9.64-10.76-9.56-10.18-9.42-9.55-9.24-8.86-9-8.1-8.7-7.3-8.33-6.44-7.91-5.51-7.43-4.52-6.88-3.5-6.27-1.91-4.26-0.91-2.58-0.63-2.34-0.34-2.08-0.08-1.72 0.14-1.46 0.24-0.9c0.54-2.01-0.74-2.97-2.85-2.13-2.12 0.84-4.27 3.15-4.81 5.17" fill="#151515"/>
    <path d="m341 440.5s31.79 109.83 281.6 250.34c48 27 251.08-5.39 262-6 10.92-0.6-6.69-19.41-15-24-8.31-4.58-53-4-84-22s-147.1-154.6-147.1-154.6l-297.5-43.74z" fill="#4F6E00"/>
    <path d="m337.13 443.45l0.02 0.08 0.21 0.67 0.46 1.3 0.73 1.9 1.03 2.5 1.38 3.07 1.75 3.64 2.16 4.18 2.6 4.72 3.07 5.24 3.59 5.74 4.14 6.23 4.71 6.7 5.32 7.17 5.97 7.62 6.65 8.05 7.37 8.46 8.12 8.87 8.9 9.26 9.71 9.63 10.57 9.99 11.46 10.34 12.37 10.67 13.33 10.98 14.31 11.29 15.34 11.58 16.39 11.85 17.48 12.1 18.6 12.36 19.77 12.58 20.95 12.8 22.18 12.99 11.57 6.58c0.02 0.01 0.03 0.01 0.05 0.02l2.36 1.23 5.49 2.24 6.33 1.92 7.05 1.6 7.73 1.29 8.33 1.01 8.89 0.75 9.36 0.51 9.8 0.29 10.15 0.07 15.76-0.23 21.7-0.88 22.02-1.41 21.83-1.8 21.14-2.05 19.93-2.18 13.85-1.63 8.6-1.06 8-1.02 7.36-0.95 6.64-0.87 5.86-0.78 5.01-0.67 4.11-0.54 3.13-0.39 2.07-0.23 0.55-0.04c0.04-0.01 0.08-0.01 0.12-0.01l0.94-0.11 2.34-0.75 3.89-3 2.19-4.33-0.1-2.51-0.69-2.04-1.66-2.99-3.14-4.14-3.8-4.09-4.03-3.68-3.83-2.92-1.77-1.1c-0.04-0.02-0.09-0.05-0.13-0.07l-0.89-0.41-2.55-0.83-3.27-0.73-3.86-0.67-4.43-0.67-4.91-0.69-5.35-0.76-5.71-0.86-9.1-1.57-12.73-2.77-12.87-3.8-9.38-3.69-5.99-2.91-2.88-1.6 0.05 0.03-1.51-0.93-3.32-2.31-3.78-2.94-4.19-3.53-4.58-4.07-4.92-4.56-5.22-5-5.48-5.4-8.63-8.72-12.08-12.58-12.45-13.29-12.53-13.65-12.32-13.63-11.81-13.23-8.35-9.44-5.25-5.97-4.95-5.67-4.63-5.3-4.26-4.91-3.86-4.45-3.41-3.96-2.94-3.42-2.43-2.82-1.87-2.19-1.28-1.5-0.66-0.78-0.09-0.1c-0.21-0.25-0.52-0.41-0.9-0.47l-297.5-43.73c-1.6-0.23-4.1 1.33-5.59 3.51-1.49 2.16-1.4 4.12 0.19 4.35l297.5 43.73-0.9-0.46 0.08 0.1 0.66 0.77 1.29 1.51 1.87 2.19 2.43 2.83 2.94 3.41 3.42 3.96 3.86 4.46 4.26 4.91 4.63 5.31 4.96 5.67 5.26 5.98 8.35 9.44 11.82 13.25 12.33 13.64 12.55 13.67 12.47 13.32 12.11 12.6 8.65 8.75 5.51 5.42 5.25 5.03 4.95 4.59 4.63 4.11 4.27 3.59 3.89 3.03 3.45 2.39 1.51 0.93c0.02 0.02 0.04 0.02 0.05 0.03l3.01 1.67 6.2 3.01 9.64 3.77 13.12 3.86 12.89 2.81 9.17 1.58 5.75 0.86 5.35 0.76 4.89 0.69 4.33 0.65 3.7 0.64 2.96 0.65 2.19 0.68 0.89 0.42-0.14-0.08 1.55 0.95 3.66 2.77 3.89 3.54 3.64 3.9 2.94 3.85 1.46 2.55 0.51 1.27 0.27 0.37 1.6-1.98 2.25-1.26-0.48 0.28-0.94 0.11 0.11-0.01-0.75 0.06-2.16 0.24-3.16 0.4-4.12 0.54-5.02 0.66-5.85 0.78-6.62 0.88-7.34 0.94-7.98 1.02-8.57 1.05-13.8 1.63-19.85 2.17-21.05 2.05-21.73 1.78-21.89 1.41-21.57 0.87-15.64 0.24-10.05-0.08-9.67-0.28-9.23-0.5-8.73-0.73-8.16-0.99-7.52-1.25-6.82-1.53-6.04-1.82-5.26-2.14-2.36-1.23 0.04 0.03-11.53-6.56-22.14-12.97-20.91-12.77-19.73-12.55-18.56-12.33-17.44-12.07-16.35-11.82-15.29-11.54-14.27-11.26-13.28-10.95-12.33-10.63-11.42-10.3-10.52-9.95-9.67-9.59-8.86-9.21-8.08-8.82-7.32-8.42-6.62-8-5.93-7.56-5.28-7.11-4.67-6.65-4.1-6.17-3.55-5.68-3.04-5.17-2.56-4.65-2.13-4.12-1.71-3.56-1.35-3-1-2.42-0.7-1.82-0.43-1.22-0.19-0.6-0.03-0.08c-0.43-1.45-2.52-1.31-4.66 0.32s-3.52 4.13-3.08 5.58" fill="#151515"/>
    <path d="m779.62 485.24l140.13-1s34.82 78.26 94.45 109.37c25.4 10.89-8.4 9.76-79.51 9.82-71.12 0.07-155.07-118.19-155.07-118.19z" fill="#314400"/>
    <path d="m777.26 489.19h0.1l0.8-0.01 1.53-0.01 2.23-0.02 2.88-0.02 3.46-0.02 4-0.03 4.49-0.03 7.53-0.05 11.27-0.09 18.71-0.13 26.14-0.19 18.7-0.13 11.28-0.08 7.53-0.05 4.49-0.03 4-0.03 3.46-0.03 2.87-0.02 2.23-0.02 1.54-0.01h0.9l-1.45-0.81 0.02 0.05 0.21 0.46 0.41 0.88 0.61 1.28 0.8 1.66 1 2.02 1.2 2.35 1.39 2.66 2.44 4.51 3.91 6.89 4.65 7.73 5.37 8.36 6.08 8.82 6.78 9.1 7.46 9.19 8.13 9.1 8.78 8.83 9.42 8.37 10.05 7.72 10.64 6.9 5.6 3.1c0.1 0.02 0.1 0.04 0.1 0.06l2.2 0.98 3.4 1.73 1.8 1.41 0.4 0.9-0.2-1.68 2.2-3.09-1.9 0.29-3.8 0.47-5.1 0.39-6.3 0.29-7.49 0.19-8.52 0.12-9.56 0.05-10.55 0.02-11.51-0.01h-19.01 0.07l-3.35-0.08-6.56-0.66-6.61-1.26-6.67-1.85-6.71-2.38-6.73-2.88-10.1-5.17-13.3-8.24-12.98-9.46-12.52-10.33-11.92-10.85-11.16-11.04-10.26-10.86-7.03-7.83-4.32-4.98-4.02-4.75-3.7-4.47-3.36-4.15-3-3.78-2.63-3.36-2.23-2.92-1.82-2.41-1.39-1.88-0.94-1.29-0.48-0.66-0.05-0.08c-0.81-1.14-3.11-0.55-5.14 1.32-2.03 1.86-3.01 4.29-2.21 5.43l0.07 0.09 0.49 0.68 0.95 1.3 1.4 1.89 1.83 2.43 2.25 2.93 2.63 3.39 3.02 3.8 3.38 4.16 3.72 4.49 4.04 4.78 4.35 5.01 7.06 7.88 10.33 10.92 11.23 11.11 12.01 10.94 12.64 10.42 13.15 9.56 13.49 8.35 10.28 5.26 6.91 2.95 6.93 2.45 6.96 1.91 6.96 1.32 6.9 0.67 3.34 0.09h0.06l6.56-0.01 12.44 0.01h11.52l10.58-0.01 9.59-0.06 8.59-0.12 7.56-0.19 6.54-0.3 5.4-0.42 4.6-0.61 4.1-1.12 5.7-4.84 0.8-3.82-1.1-1.67-2.2-1.63-3.5-1.81-2.2-0.98 0.1 0.05-5.4-3-10.5-6.78-9.93-7.61-9.31-8.27-8.68-8.72-8.05-9.01-7.4-9.11-6.72-9.02-6.03-8.76-5.34-8.29-4.61-7.67-3.88-6.84-2.42-4.48-1.38-2.64-1.19-2.32-0.99-1.99-0.79-1.64-0.6-1.26-0.4-0.86-0.2-0.44-0.03-0.06c-0.23-0.53-0.74-0.81-1.45-0.81h-0.1l-0.79 0.01-1.54 0.01-2.23 0.02-2.87 0.02-3.46 0.02-4 0.03-4.49 0.03-7.54 0.06-11.27 0.08-18.7 0.13-26.14 0.19-18.71 0.13-11.27 0.08-7.54 0.05-4.48 0.04-4.01 0.02-3.46 0.03-2.87 0.02-2.23 0.01-1.54 0.02h-0.89c-1.76 0.02-4.23 1.8-5.53 3.98s-0.93 3.94 0.82 3.93" fill="#151515"/>
    <path d="m433.5 250.5c1 1-43 2-67 51-17 44 7 60 8 60.12 23 31.88 435 108.88 522 101.88 76.35-2.05 57-44 21-57s-406-183-484-156z" fill="#fff"/>
    <path d="m429.82 251.55l-0.04 0.1 4.35-4.65-1.41 0.26-2.57 0.51-3.38 0.78-4.06 1.11-4.65 1.52-5.13 2.02-5.55 2.59-5.88 3.26-6.11 4.02-6.24 4.87-6.24 5.8-6.1 6.77-5.79 7.75-5.35 8.75-2.56 4.89c-0.12 0.24-0.23 0.48-0.31 0.72l-1.48 4.04-2.37 7.88-1.54 7.32-0.78 6.67-0.12 6.05 0.45 5.43 0.91 4.84 1.29 4.27 1.55 3.72 1.72 3.2 1.79 2.68 1.78 2.2 1.66 1.73 1.45 1.29 1.16 0.87 0.78 0.48 0.41 0.17-0.58-0.4 0.6 0.75 1.76 1.68 2.3 1.72 2.8 1.74 3.3 1.78 3.78 1.81 4.25 1.86 4.7 1.9 5.15 1.94 5.57 1.98 9.12 3.04 13.51 4.16 14.93 4.27 16.23 4.35 17.39 4.42 18.43 4.45 19.33 4.47 20.1 4.46 20.75 4.43 32.04 6.54 43.76 8.38 43.99 7.83 32.52 5.4 21.2 3.33 20.67 3.08 20.01 2.82 19.23 2.53 18.29 2.21 17.25 1.87 16.07 1.51 11.21 0.88 7.03 0.47 6.67 0.36 6.29 0.25 5.89 0.14 5.47 0.03 5.06-0.09 4.62-0.21 2.17-0.15h-0.1l3.51-0.12 6.68-0.43 6.19-0.64 5.69-0.86 5.21-1.05 4.76-1.26 4.35-1.46 3.97-1.66 3.64-1.9 3.35-2.17 3.08-2.51 2.76-2.85 3.06-4.42 2.21-5.99 0.28-5.68-1.23-5.27-2.44-5-3.46-4.76-4.38-4.48-5.17-4.12-5.85-3.67-6.42-3.13-3.43-1.35c-0.01-0.01-0.02-0.01-0.03-0.01l-0.91-0.34-2.14-0.82-2.62-1.05-3.08-1.26-3.52-1.46-3.95-1.65-4.37-1.84-4.75-2.02-5.14-2.19-5.51-2.35-5.87-2.51-6.2-2.65-9.91-4.22-14.26-6.07-15.36-6.5-16.34-6.87-17.22-7.18-17.96-7.42-18.61-7.59-19.13-7.7-29.43-11.61-40.01-15.27-30.09-11-19.88-7-19.61-6.66-19.21-6.25-18.71-5.77-18.09-5.24-17.36-4.63-16.52-3.97-11.77-2.51-7.54-1.42-7.25-1.22-6.97-1.01-6.67-0.79-6.37-0.56-6.04-0.33-5.71-0.08-5.37 0.18-5.03 0.45-4.7 0.73-4.37 1.04-2.18 0.68c-2.06 0.65-4.32 2.87-5.05 4.95s0.35 3.24 2.41 2.59l1.58-0.51 3.78-0.92 4.27-0.68 4.72-0.43 5.13-0.17 5.52 0.07 5.89 0.31 6.23 0.55 6.57 0.78 6.88 0.99 7.18 1.21 7.45 1.41 11.68 2.48 16.44 3.95 17.29 4.62 18.04 5.22 18.66 5.76 19.17 6.23 19.57 6.65 19.85 6.99 30.05 10.98 39.97 15.26 29.42 11.6 19.12 7.7 18.59 7.59 17.96 7.41 17.21 7.17 16.33 6.87 15.36 6.5 14.26 6.07 9.9 4.22 6.21 2.65 5.86 2.5 5.51 2.36 5.15 2.19 4.76 2.02 4.37 1.84 3.95 1.66 3.54 1.47 3.1 1.27 2.66 1.06 2.19 0.84 0.9 0.33-0.03-0.01 3.22 1.26 6.17 2.99 5.61 3.5 4.94 3.91 4.14 4.21 3.23 4.36 2.21 4.38 1.12 4.16 0.11 3.58-0.7 2.92-1.07 1.91-0.97 1.15-1.47 1.29-2.04 1.4-2.64 1.42-3.2 1.37-3.76 1.28-4.31 1.15-4.85 1-5.4 0.81-5.94 0.63-6.53 0.41-3.51 0.13h-0.1l-2.03 0.15-4.47 0.2-4.94 0.09-5.38-0.03-5.81-0.14-6.23-0.24-6.61-0.36-6.98-0.46-11.14-0.87-16.01-1.51-17.19-1.87-18.26-2.2-19.18-2.52-19.98-2.82-20.64-3.08-21.17-3.32-32.48-5.39-43.94-7.82-43.71-8.38-32.01-6.52-20.72-4.43-20.08-4.45-19.29-4.46-18.39-4.45-17.35-4.4-16.17-4.34-14.87-4.25-13.44-4.14-9.06-3.01-5.51-1.96-5.08-1.92-4.63-1.87-4.16-1.81-3.66-1.76-3.16-1.69-2.62-1.62-2.07-1.52-1.52-1.44-0.62-0.76c-0.14-0.18-0.34-0.32-0.58-0.4l0.09 0.05-0.57-0.33-0.99-0.73-1.31-1.15-1.52-1.58-1.63-2.01-1.67-2.47-1.6-2.93-1.44-3.42-1.19-3.91-0.86-4.43-0.44-4.95 0.08-5.49 0.68-6.05 1.37-6.62 2.19-7.33 1.47-4.05-0.31 0.72 2.06-4.02 4.48-7.45 4.69-6.41 4.85-5.49 4.98-4.71 5.06-4.02 5.08-3.39 5.01-2.82 4.85-2.29 4.58-1.81 4.2-1.39 3.72-1.02 3.16-0.73 2.51-0.5 2.05-0.41 5.97-5.1 0.04-0.09c0.8-2.11-0.2-3.34-2.24-2.76-2.03 0.58-4.32 2.76-5.12 4.86" fill="#151515"/>
    <path d="m410.57 345.43c4.93 8.31 76.87 27.19 84.4 29.25s38.6-83.94 30.53-86.94c-8.07-3.01-74.03-22.69-87.52-18.84-13.48 3.84-32.33 68.23-27.41 76.53z" fill="#002744"/>
    <path d="m406.95 348.87l0.65 0.81 2.62 2 3.84 2.08 4.85 2.16 5.72 2.25 6.4 2.31 10.48 3.49 14.63 4.51 10.63 3.1 6.55 1.86 5.91 1.64 5.08 1.39 4.04 1.09 2.82 0.76 0.89 0.24c0.1 0.03 0.21 0.05 0.33 0.06l0.37 0.04 2.3-0.55 3.07-2.02 2.27-2.36 2.45-3.43 3.04-5.28 3.08-6.22 3.12-7.02 4.67-11.58 4.45-12.27 2.7-8.17 2.38-7.83 1.96-7.28 1.46-6.5 0.71-4.26 0.28-2.51 0.08-2.18-0.13-1.87-0.38-1.55-0.75-1.21-0.75-0.57c-0.08-0.04-0.15-0.08-0.24-0.11l-0.92-0.33-2.82-0.93-3.92-1.23-4.86-1.48-5.66-1.66-6.28-1.78-10.25-2.78-14.37-3.6-10.61-2.37-6.69-1.31-6.21-1.02-5.56-0.67-4.8-0.28-3.95 0.2-1.9 0.36c-0.28 0.06-0.57 0.15-0.87 0.27l-1.28 0.54-4.36 3.08-4.19 4.66-3.38 5.1-3.01 5.57-2.8 6.03-3.84 9.65-4.43 13.45-2.66 9.88-1.37 6.16-0.99 5.6-0.59 4.92-0.12 4.1 0.41 3.16 0.51 1.36c0.56 1.35 2.73 1.05 4.84-0.66 2.1-1.72 3.36-4.2 2.79-5.55l-0.28-0.52-0.37-2.4 0.09-3.57 0.52-4.54 0.93-5.28 1.29-5.81 2.51-9.38 4.21-12.86 3.59-9.06 2.44-5.32 2.37-4.48 2.04-3.29 1.2-1.77 0.9-1.01 1.28-0.54-0.87 0.28 0.93-0.23 3.39-0.2 4.52 0.25 5.4 0.65 6.09 1.01 6.6 1.28 10.52 2.35 14.3 3.58 10.22 2.77 6.25 1.78 5.63 1.64 4.83 1.47 3.88 1.22 2.74 0.91 0.93 0.33-0.24-0.11-0.05-0.17 0.32 0.29 0.26 0.83 0.12 1.33-0.06 1.77-0.22 2.13-0.64 3.85-1.37 6.16-1.89 7.01-2.29 7.6-2.61 7.9-4.32 11.91-4.5 11.2-2.92 6.56-2.68 5.49-2.26 4.05-1.12 1.72 0.14 0.06 1.15-0.47 0.63 0.07-0.37-0.03 0.33 0.05-0.89-0.24-2.82-0.76-4.03-1.09-5.06-1.38-5.9-1.64-6.53-1.85-10.58-3.09-14.55-4.49-10.41-3.46-6.32-2.28-5.6-2.2-4.67-2.07-3.5-1.87-2.17-1.56-0.65-0.81c-0.88-1.08-3.2-0.42-5.2 1.48-2.01 1.9-2.92 4.31-2.05 5.39" fill="#151515"/>
    <path d="m631.78 324.6c-4.45-7.91-69.39-25.88-76.19-27.84s-34.85 79.91-27.56 82.77 66.83 21.6 79.01 17.94c12.17-3.66 29.19-64.96 24.74-72.87z" fill="#002744"/>
    <path d="m635.42 321.19l-0.58-0.77-2.38-1.92-3.48-1.99-4.4-2.07-5.16-2.14-5.79-2.2-9.46-3.33-13.21-4.29-9.6-2.95-5.92-1.77-5.34-1.57-4.58-1.32-3.65-1.04-2.54-0.72-0.81-0.23c-0.1-0.03-0.22-0.06-0.34-0.07l-0.34-0.03-2.31 0.57-3.09 2.1-2.14 2.34-2.22 3.29-2.74 5.02-2.78 5.92-2.82 6.68-4.21 11.02-4.02 11.68-2.44 7.77-2.14 7.45-1.77 6.93-1.32 6.19-0.64 4.05-0.25 2.39-0.07 2.07 0.11 1.78 0.35 1.48 0.68 1.17 0.71 0.57c0.08 0.05 0.16 0.09 0.24 0.12l0.83 0.31 2.55 0.89 3.54 1.18 4.4 1.4 5.1 1.58 5.68 1.7 9.25 2.65 12.98 3.42 9.58 2.26 6.05 1.24 5.61 0.98 5.04 0.64 4.35 0.27 3.61-0.19 1.79-0.36c0.3-0.06 0.61-0.16 0.93-0.31l1.16-0.5 4.2-3.1 3.88-4.54 3.07-4.87 2.71-5.3 2.53-5.73 3.47-9.19 3.99-12.8 2.4-9.4 1.24-5.86 0.89-5.33 0.53-4.68 0.11-3.89-0.37-3.02-0.46-1.3c-0.54-1.37-2.7-1.1-4.81 0.61-2.12 1.7-3.39 4.19-2.85 5.55l0.25 0.48 0.34 2.28-0.08 3.41-0.48 4.32-0.84 5.03-1.16 5.54-2.26 8.94-3.81 12.25-3.24 8.62-2.21 5.08-2.14 4.27-1.83 3.12-0.97 1.57-0.56 0.81-1.15 0.5 0.93-0.31-0.76 0.21-3.02 0.19-4.06-0.23-4.86-0.63-5.5-0.95-5.95-1.22-9.49-2.23-12.91-3.41-9.21-2.64-5.65-1.69-5.08-1.57-4.36-1.39-3.49-1.16-2.48-0.87-0.84-0.31 0.24 0.11 0.08 0.19-0.28-0.25-0.24-0.79-0.1-1.27 0.05-1.68 0.2-2.03 0.57-3.68 1.25-5.87 1.7-6.68 2.07-7.23 2.36-7.52 3.9-11.34 4.06-10.67 2.64-6.26 2.42-5.22 2.05-3.86 0.99-1.62-0.22 0.04-1.35 0.63-0.8-0.02 0.33 0.03-0.34-0.06 0.8 0.23 2.54 0.72 3.64 1.04 4.57 1.31 5.32 1.56 5.9 1.77 9.55 2.93 13.14 4.28 9.38 3.29 5.71 2.17 5.04 2.09 4.21 1.97 3.15 1.77 1.94 1.47 0.59 0.77c0.84 1.1 3.16 0.47 5.17-1.41 2.01-1.89 2.96-4.31 2.11-5.41" fill="#151515"/>
    <path d="m730.79 353.93c-4.17-7.4-64.99-24.24-71.35-26.07-6.37-1.84-32.64 74.83-25.81 77.51 6.82 2.67 62.58 20.22 73.98 16.8 11.4-3.43 27.34-60.84 23.18-68.24z" fill="#002744"/>
    <path d="m734.43 350.52l-0.55-0.72-2.24-1.82-3.27-1.86-4.12-1.94-4.85-2.01-5.42-2.06-8.86-3.12-12.37-4.02-8.99-2.77-5.55-1.65-4.99-1.47-4.3-1.24-3.41-0.97-2.39-0.68-0.75-0.21c-0.11-0.04-0.22-0.06-0.34-0.07l-0.32-0.03-2.27 0.55-3.02 2.06-2.08 2.27-2.13 3.12-2.59 4.75-2.61 5.56-2.64 6.27-3.95 10.34-3.77 10.94-2.29 7.29-2 6.98-1.66 6.5-1.24 5.8-0.73 4.91-0.17 3.05 0.1 1.73 0.33 1.41 0.65 1.13 0.69 0.55c0.08 0.05 0.16 0.08 0.24 0.12l0.78 0.29 2.39 0.83 3.32 1.1 4.11 1.32 4.79 1.48 5.31 1.59 8.67 2.48 12.15 3.21 8.98 2.11 5.67 1.17 5.25 0.91 4.73 0.61 4.08 0.25 3.4-0.18 1.71-0.34c0.3-0.06 0.61-0.17 0.93-0.31l1.08-0.47 4.05-2.98 3.73-4.34 2.91-4.62 2.56-4.99 2.38-5.39 3.25-8.62 3.75-12.01 2.25-8.81 1.16-5.5 0.84-5 0.5-4.39 0.1-3.67-0.35-2.84-0.43-1.25c-0.55-1.37-2.7-1.1-4.82 0.61-2.11 1.7-3.38 4.19-2.84 5.55l0.22 0.43 0.32 2.11-0.08 3.18-0.44 4.03-0.78 4.7-1.09 5.17-2.12 8.36-3.56 11.45-3.02 8.06-2.06 4.73-1.99 3.97-1.67 2.86-0.82 1.39-0.4 0.68-1.09 0.47 0.94-0.31-0.68 0.19-2.81 0.18-3.79-0.22-4.55-0.58-5.14-0.89-5.57-1.15-8.89-2.09-12.08-3.19-8.63-2.47-5.29-1.58-4.75-1.47-4.09-1.3-3.27-1.09-2.32-0.81-0.78-0.29 0.24 0.11 0.1 0.2-0.25-0.21-0.21-0.71-0.1-1.12 0.11-2.47 0.65-4.47 1.16-5.48 1.6-6.25 1.94-6.77 2.2-7.03 3.64-10.61 3.81-9.98 2.46-5.85 2.26-4.87 1.89-3.58 0.89-1.45-0.27 0.1-1.41 0.68h-0.85l0.31 0.03-0.35-0.06 0.76 0.21 2.38 0.68 3.41 0.97 4.27 1.23 4.99 1.46 5.52 1.65 8.94 2.75 12.3 4 8.79 3.09 5.34 2.03 4.72 1.96 3.93 1.84 2.94 1.64 1.8 1.37 0.55 0.72c0.85 1.1 3.17 0.47 5.18-1.42 2.01-1.88 2.96-4.3 2.11-5.4" fill="#151515"/>
    <path d="m812.09 383.04c-3.41-6.08-53.31-19.89-58.53-21.4-5.22-1.5-26.78 61.4-21.18 63.6 5.6 2.19 51.35 16.59 60.7 13.78 9.36-2.81 22.43-49.91 19.01-55.98z" fill="#002744"/>
    <path d="m815.74 379.62l-0.46-0.59-1.87-1.52-2.71-1.56-3.4-1.59-3.98-1.66-4.46-1.69-7.28-2.56-10.16-3.3-7.37-2.27-4.56-1.36-4.1-1.21-3.52-1.01-2.81-0.8-1.95-0.56-0.62-0.17c-0.23-0.07-0.49-0.09-0.78-0.07l-0.54 0.04-4.65 2.76-3.34 4.27-2.27 4.13-2.17 4.62-2.19 5.18-3.26 8.51-4.05 11.99-2.57 8.74-1.38 5.38-1.02 4.79-0.61 4.07-0.12 3.23 0.32 1.92 0.59 1.11 0.64 0.52c0.07 0.04 0.15 0.08 0.24 0.12l0.64 0.24 1.96 0.68 2.73 0.91 3.38 1.08 3.93 1.21 4.36 1.31 7.11 2.03 9.98 2.64 7.37 1.73 4.66 0.96 4.32 0.75 3.89 0.5 3.38 0.21 2.84-0.15 1.5-0.29c0.3-0.06 0.61-0.17 0.93-0.31l0.89-0.39 3.64-2.64 3.33-3.83 2.5-3.95 2.15-4.19 1.98-4.48 2.69-7.12 3.09-9.9 1.86-7.27 0.95-4.54 0.7-4.13 0.41-3.64 0.09-3.05-0.29-2.4-0.38-1.1c-0.54-1.36-2.69-1.09-4.81 0.61-2.11 1.7-3.39 4.19-2.85 5.56l0.17 0.27 0.25 1.67-0.05 2.56-0.36 3.28-0.64 3.83-0.88 4.21-1.73 6.82-2.9 9.35-2.46 6.56-1.67 3.82-1.57 3.16-1.27 2.19-0.41 0.87v0.35l-0.88 0.39 0.93-0.31-0.47 0.14-2.25 0.15-3.08-0.18-3.72-0.47-4.21-0.73-4.56-0.94-7.28-1.71-9.91-2.62-7.07-2.02-4.34-1.3-3.9-1.2-3.34-1.07-2.68-0.89-1.9-0.66-0.64-0.24 0.24 0.11 0.15 0.23-0.15 0.01-0.24-0.92 0.06-2.54 0.53-3.62 0.95-4.47 1.29-5.08 2.46-8.38 3.91-11.6 3.11-8.16 2-4.75 1.83-3.94 1.4-2.7-0.11-0.46-2 0.5 0.54-0.04-0.78-0.07 0.62 0.18 1.95 0.56 2.79 0.79 3.51 1.02 4.09 1.19 4.52 1.36 7.33 2.25 10.09 3.28 7.2 2.53 4.37 1.66 3.87 1.6 3.21 1.5 2.38 1.34 1.44 1.08 0.45 0.59c0.85 1.1 3.16 0.47 5.18-1.42 2.01-1.88 2.95-4.3 2.11-5.41" fill="#151515"/>
    <path d="m878.41 406.96c-2.78-4.96-43.48-16.22-47.74-17.45s-21.84 50.08-17.27 51.87 41.88 13.53 49.51 11.24 18.29-40.71 15.5-45.66z" fill="#002744"/>
    <path d="m882.06 403.55l-0.37-0.48-1.57-1.29-2.25-1.29-2.78-1.31-5.03-2.04-7.81-2.79-8.3-2.69-7.91-2.43-5.17-1.52-2.88-0.83-2.29-0.65-1.59-0.45-0.5-0.15c-0.23-0.06-0.5-0.09-0.79-0.06l-0.44 0.03-4.4 2.56-3.04 3.82-1.94 3.5-1.8 3.84-1.8 4.26-2.67 6.98-3.32 9.81-2.11 7.17-1.13 4.41-0.84 3.94-0.5 3.35-0.11 2.7 0.42 2.02 0.8 1.02c0.12 0.1 0.25 0.18 0.4 0.24l0.52 0.19 1.61 0.57 2.23 0.74 2.76 0.88 4.95 1.51 7.62 2.2 8.15 2.16 7.94 1.82 5.41 0.99 3.21 0.41 2.78 0.17 2.37-0.12 1.31-0.24c0.3-0.07 0.61-0.17 0.94-0.32l0.72-0.31 3.31-2.37 2.98-3.4 2.15-3.38 2.6-5.26 3.05-7.78 2.56-8.17 1.52-5.97 0.79-3.74 0.57-3.39 0.34-3 0.08-2.54-0.24-2.02-0.33-0.97c-0.54-1.37-2.69-1.1-4.81 0.6-2.11 1.71-3.39 4.2-2.85 5.56l0.12 0.15 0.2 1.29-0.04 2.05-0.29 2.63-0.51 3.1-0.72 3.41-1.39 5.52-2.33 7.52-2.63 6.85-1.94 4.04-0.92 1.63-0.06 0.43 0.33 0.08-0.72 0.32 0.93-0.32-0.28 0.11-1.78 0.12-2.49-0.15-3-0.38-5.25-0.95-7.83-1.8-8.07-2.13-7.57-2.19-4.91-1.5-2.73-0.87-2.18-0.73-1.54-0.53-0.52-0.2 0.4 0.23 0.07 0.41-0.31-0.82 0.05-2 0.42-2.92 0.77-3.62 1.04-4.11 2-6.8 3.18-9.43 2.52-6.62 1.62-3.84 1.45-3.14 1.06-2.07-0.4-0.03-2.25 0.71 0.44-0.03-0.78-0.07 0.5 0.15 1.6 0.45 2.28 0.65 2.85 0.82 5.14 1.52 7.86 2.4 8.21 2.67 7.69 2.74 4.89 1.98 2.6 1.21 1.91 1.07 1.13 0.84 0.37 0.48c0.85 1.1 3.16 0.47 5.18-1.41 2.01-1.89 2.95-4.31 2.11-5.41" fill="#151515"/>
    <path d="m182.83 296.72c6.67-3.22 96.76 33.31 105.34 52.78 8.57 19.47 50.33-73.42 50.33-73.42s9.67-15.25 7.43-38.08c-16.43-87.83-111.43-55.5-112.83-55.67-15.6 2.17-56.93 117.61-50.27 114.39z" fill="#002744"/>
    <path d="m181.56 300.48l0.37-0.12 0.18 0.11 1.15 0.14 1.78 0.33 2.24 0.52 2.63 0.72 4.58 1.41 7.08 2.44 7.95 2.99 8.59 3.47 8.98 3.87 13.67 6.34 13.16 6.76 8.08 4.57 7.25 4.55 6.18 4.43 3.76 3.17 2.02 2.01 1.63 1.93 1.17 1.79 0.38 0.79 0.01 0.01 0.42 0.83 1.15 1.43 1.58 0.91 2.11 0.2 2.68-0.73 2.91-1.63 2.76-2.2 2.52-2.5 3.45-4.08 4.53-6.28 4.56-7.11 4.51-7.65 4.4-7.95 4.23-7.99 3.94-7.73 3.55-7.19 3.06-6.35 1.92-4.04 1.06-2.27 0.88-1.9 0.68-1.48 0.46-1.02 0.25-0.54 0.03-0.08-0.44 0.83 0.02-0.04 0.29-0.48 0.49-0.86 0.63-1.2 1.13-2.36 1.72-4.22 1.73-5.37 1.46-6.38 0.94-7.3 0.16-8.11-0.29-4.4c-0.01-0.09-0.02-0.19-0.04-0.27l-0.82-4.03-2.01-7.64-2.43-7.01-2.83-6.36-3.18-5.76-3.51-5.16-3.81-4.62-4.07-4.07-4.3-3.58-4.49-3.1-4.67-2.65-4.79-2.24-7.35-2.61-9.97-2.3-9.94-1.14-9.64-0.2-9.08 0.51-8.25 0.98-7.18 1.25-5.86 1.27-3.37 0.83-1.69 0.44-1.17 0.31-0.57 0.14 0.3-0.06c-0.15 0.01-0.3 0.04-0.45 0.08l-0.75 0.18-2.84 1.33-3.21 2.43-2.79 2.89-2.49 3.15-2.37 3.43-3.46 5.66-4.66 8.63-4.72 9.68-4.67 10.37-4.56 10.79-4.33 10.86-4.01 10.62-3.59 10.05-2.35 6.97-1.38 4.3-1.21 3.96-1.03 3.6-0.85 3.2-0.64 2.76-0.43 2.31-0.19 1.86 0.08 1.49 0.74 1.3 2.19 0.28c1.98-0.46 4.33-2.57 5.24-4.7s0.03-3.48-1.95-3.02l1.64 0.42 0.03 0.56-0.1-0.52 0.12-1.32 0.36-1.97 0.58-2.52 0.79-3.01 0.99-3.45 1.18-3.83 1.33-4.17 2.29-6.8 3.52-9.86 3.94-10.43 4.25-10.66 4.44-10.52 4.51-10.03 4.46-9.17 4.27-7.95 2.97-4.9 1.72-2.55 1.42-1.88 0.92-1.12 0.27-0.45 0.37-0.36 0.75-0.19-0.45 0.08 0.57-0.09 0.75-0.18 1.15-0.31 1.58-0.41 3.15-0.78 5.55-1.21 6.83-1.19 7.88-0.96 8.67-0.5 9.22 0.18 9.52 1.06 9.6 2.19 7.08 2.51 4.6 2.13 4.47 2.54 4.31 2.96 4.13 3.42 3.91 3.9 3.66 4.42 3.39 4.96 3.07 5.53 2.73 6.13 2.36 6.77 1.96 7.45 0.83 4.03-0.04-0.27 0.28 3.98-0.11 7.49-0.82 6.61-1.26 5.66-1.46 4.62-1.42 3.55-0.9 1.89-0.44 0.84-0.29 0.53-0.13 0.22-0.03 0.04c-0.17 0.28-0.32 0.56-0.44 0.84l-0.03 0.05-0.23 0.51-0.45 1-0.67 1.44-0.86 1.86-1.04 2.22-1.86 3.95-3.01 6.24-3.48 7.04-3.84 7.54-4.09 7.74-4.22 7.61-4.2 7.16-4.04 6.34-3.7 5.21-2.37 2.89-1.13 1.22-0.69 0.69-0.3 0.36-0.27 0.29-0.53 0.16-0.75-0.26-0.84-0.95-0.42-0.83 0.01 0.01-0.55-1.06-1.35-2.04-1.78-2.09-2.17-2.14-3.92-3.3-6.3-4.51-7.36-4.62-8.18-4.63-13.26-6.8-13.75-6.38-9.03-3.89-8.66-3.49-8.04-3.03-7.18-2.47-4.68-1.44-2.75-0.75-2.43-0.56-2.13-0.38-1.94-0.14-2.01 0.26-0.37 0.12c-2.07 0.68-4.31 2.91-5.02 4.99-0.7 2.07 0.4 3.21 2.47 2.53" fill="#151515"/>
    <path d="m592.4 629.32l57.68-8-15.1-34.51 34.96 30.01 50.99-16.64-36.08 26.55 46.61 24.22-57.26-13.59-22.17 31.61 0.69-34.96z" fill="#fff"/>
    <path stroke="#fff" stroke-width="2" d="m592.4 629.32l57.68-8-15.1-34.51 34.96 30.01 50.99-16.64-36.08 26.55 46.61 24.22-57.26-13.59-22.17 31.61 0.69-34.96z" fill-opacity="0"/>
  </g>
  <defs>
    <linearGradient id="Gradient_1" y2="339.29" gradientUnits="userSpaceOnUse" y1="479.59" x2="203.32" x1="111.09">
      <stop offset="0"/>
      <stop stop-color="#2B2B2B" offset=".719"/>
      <stop stop-color="#fff" offset="1"/>
    </linearGradient>
    <linearGradient id="Gradient_2" y2="310.67" gradientUnits="userSpaceOnUse" y1="310.67" x2="1039.2" x1="167.1">
      <stop stop-color="#4F6E00" offset="0"/>
      <stop stop-color="#314400" offset="1"/>
    </linearGradient>
  </defs>
  <metadata>
    <rdf:RDF>
      <cc:Work>
        <dc:format>image/svg+xml</dc:format>
        <dc:type rdf:resource="http://purl.org/dc/dcmitype/StillImage"/>
        <cc:license rdf:resource="http://creativecommons.org/licenses/publicdomain/"/>
        <dc:publisher>
          <cc:Agent rdf:about="http://openclipart.org/">
            <dc:title>Openclipart</dc:title>
          </cc:Agent>
        </dc:publisher>
        <dc:title>funny military airplane</dc:title>
        <dc:date>2013-01-13T02:33:52</dc:date>
        <dc:description>funny military airplane</dc:description>
        <dc:source>http://openclipart.org/detail/174206/funny-military-airplane-by-martin74-174206</dc:source>
        <dc:creator>
          <cc:Agent>
            <dc:title>martin74</dc:title>
          </cc:Agent>
        </dc:creator>
        <dc:subject>
          <rdf:Bag>
            <rdf:li>aeroplano</rdf:li>
            <rdf:li>airplane</rdf:li>
            <rdf:li>cartoon</rdf:li>
            <rdf:li>clip art</rdf:li>
            <rdf:li>clipart</rdf:li>
            <rdf:li>funny</rdf:li>
            <rdf:li>green</rdf:li>
            <rdf:li>military</rdf:li>
            <rdf:li>passenger</rdf:li>
            <rdf:li>transportation</rdf:li>
          </rdf:Bag>
        </dc:subject>
      </cc:Work>
      <cc:License rdf:about="http://creativecommons.org/licenses/publicdomain/">
        <cc:permits rdf:resource="http://creativecommons.org/ns#Reproduction"/>
        <cc:permits rdf:resource="http://creativecommons.org/ns#Distribution"/>
        <cc:permits rdf:resource="http://creativecommons.org/ns#DerivativeWorks"/>
      </cc:License>
    </rdf:RDF>
  </metadata>
</svg>
